# xmcd
#
# Track frame offsets: 
#        150
#        13547
#        33240
#        50841
#        68557
#        82301
#        98540
#        116438
#        136342
#        154863
#
# Disc length: 2287 seconds
#
# Revision: 0
# Processed by: cddbd v1.5.2PL0 Copyright (c) Steve Scherf et al.
# Submitted via: ExactAudioCopy v0.95b3
#
DISCID=7b08ed0a
DTITLE=Black Stone Cherry - Folklore and Superstition SE - CDII
DYEAR=2007
DGENRE=Blues
TTITLE0=Yeah Man
TTITLE1=Big City Lights
TTITLE2=We Are The Kings
TTITLE3=Bulldozer
TTITLE4=Cowboys
TTITLE5=Drinkin' Champagne
TTITLE6=Peace Is Free (Acoustic)
TTITLE7=Hell And High Water (Acoustic)
TTITLE8=Lonely Train (Acoustic)
TTITLE9=Maybe Some Day (Acoustic)
EXTD=
EXTT0=
EXTT1=
EXTT2=
EXTT3=
EXTT4=
EXTT5=
EXTT6=
EXTT7=
EXTT8=
EXTT9=
PLAYORDER=
